<svg version="1.2" xmlns="http://www.w3.org/2000/svg" viewBox="0 0 200 227" width="200" height="227">
	<title>css@logotyp</title>
	<style>
		.s0 { fill: #264de4 } 
		.s1 { fill: #2965f1 } 
		.s2 { fill: #ebebeb } 
		.s3 { fill: #ffffff } 
	</style>
	<g>
		<path class="s0" d="m200 0.3l-18.2 204.1-81.9 22.8-81.7-22.7-18.2-204.2z"/>
		<path class="s1" d="m166.2 191.4l15.6-174.4h-81.8v192.8z"/>
		<g>
			<path class="s2" d="m41.7 92.7l2.3 25.1h56v-25.1z"/>
			<path class="s2" d="m100 42.1h-62.8l2.3 25h60.5z"/>
			<path class="s2" d="m100 183.8v-26h-0.1l-27.9-7.5-1.8-20h-25.1l3.5 39.3 51.3 14.2z"/>
		</g>
		<path class="s3" d="m130.7 117.8l-2.9 32.4-27.9 7.6v26l51.3-14.2 0.4-4.2 5.9-65.9 0.6-6.8 4.5-50.6h-62.7v25h35.3l-2.3 25.6h-33v25.1z"/>
	</g>
</svg>